<svg width="155" height="159" viewBox="0 0 155 159" fill="none" xmlns="http://www.w3.org/2000/svg">
<g filter="url(#filter0_d_2_7)">
<path d="M10.1613 35.8461C-3.11149 55.6489 -1.46998 81.4072 8.67923 102.504C8.91373 103.01 9.17168 103.507 9.42025 104.003L9.88926 104.952C9.98306 105.137 10.0862 105.317 10.1847 105.497C10.3583 105.837 10.5365 106.149 10.7147 106.479L11.6855 108.202L12.239 109.146L13.3646 110.97L13.8429 111.739C14.3729 112.557 14.9123 113.374 15.4704 114.172L15.7893 114.62C16.2728 115.309 16.7668 115.99 17.2714 116.663L17.8342 117.403L19.2036 119.154L19.7289 119.806C20.3527 120.57 20.9952 121.329 21.6378 122.069C21.7034 122.142 21.7316 122.166 21.7503 122.195C22.3875 122.912 23.0348 123.619 23.692 124.317L24.3158 124.969L25.8635 126.545L26.4966 127.178C27.1932 127.859 27.9015 128.527 28.6212 129.182L30.9475 131.226L31.7448 131.887L33.3535 133.191L34.2117 133.873L36.0174 135.215L36.8616 135.833C37.4385 136.247 38.0247 136.641 38.6157 137.035L39.3754 137.561C40.2807 138.157 41.1954 138.738 42.1191 139.303L42.8789 139.789L44.9425 140.986C45.3177 141.195 45.7023 141.395 46.0822 141.594L47.5548 142.387L47.8972 142.558L48.5069 142.859L50.8426 143.978L51.335 144.207C52.2366 144.614 53.145 145.005 54.0599 145.38L54.7165 145.652L57.2866 146.64L57.6149 146.757C58.5639 147.096 59.5177 147.42 60.4759 147.73L61.17 147.944C62.108 148.25 63.121 148.625 64.1247 148.81C128.35 160.959 146.997 108.766 146.997 108.766C131.333 129.941 103.521 135.527 77.1161 129.309C76.1171 129.075 75.1463 128.754 74.1754 128.452L73.4438 128.224C72.4943 127.921 71.5499 127.601 70.611 127.265L70.2217 127.119C69.3859 126.811 68.5541 126.492 67.7266 126.161L67.0231 125.869C66.1166 125.499 65.2175 125.109 64.3264 124.701L63.787 124.458L61.5124 123.358L60.8558 123.032C60.2648 122.74 59.6832 122.414 59.097 122.059L57.9245 121.426C57.2116 121.037 56.5175 120.619 55.814 120.2L55.1011 119.787C54.1778 119.221 53.2631 118.64 52.3574 118.045C52.1089 117.879 51.865 117.704 51.6164 117.534L49.6654 116.186C49.4496 116.04 49.1964 115.875 49.0369 115.729L47.189 114.342L46.3683 113.7L44.7033 112.347L43.9623 111.729L41.8893 109.915C41.8139 109.846 41.7357 109.781 41.6548 109.72L39.4739 107.662L38.8642 107.049L37.3071 105.443L36.6974 104.811C36.0408 104.115 35.403 103.414 34.8214 102.699C34.7886 102.665 34.7558 102.631 34.7276 102.592C34.0636 101.836 33.4131 101.067 32.7766 100.286L32.3076 99.6531L30.9006 97.8528L30.4316 97.1862L28.8088 94.9481C14.0915 74.2597 8.82931 45.6599 20.5262 22.2079M51.3866 19.1669C41.7814 33.5058 42.302 52.7393 49.792 67.8615C51.0471 70.4102 52.4667 72.868 54.0411 75.2182C55.481 77.3591 57.0756 79.9038 58.9844 81.6213C59.6786 82.4144 60.4008 83.1783 61.1418 83.9422L61.7046 84.526C62.4215 85.2512 63.1549 85.9586 63.9043 86.6474C63.9371 86.6718 63.9606 86.7058 63.9981 86.7301C64.8517 87.5086 65.7146 88.1898 66.5917 88.9586L67.1732 89.4305C68.0531 90.1346 68.9508 90.8143 69.8653 91.4692L69.945 91.5276C70.3484 91.8195 70.7611 92.0871 71.1738 92.3693C71.3708 92.5007 71.5584 92.6418 71.7554 92.7683C72.411 93.2047 73.0756 93.6265 73.7486 94.0334L74.03 94.2036L75.7935 95.1768C75.9999 95.2984 76.2625 95.4006 76.4219 95.5173L77.6554 96.1791C77.7164 96.2131 77.7821 96.2374 77.843 96.2666C78.689 96.7037 79.546 97.1175 80.4132 97.5074L80.976 97.7506C81.6745 98.0583 82.3782 98.3535 83.0865 98.6362L83.987 98.9768C84.6292 99.2189 85.2749 99.4509 85.9239 99.6725L86.801 99.9645C87.7249 100.256 88.677 100.646 89.6009 100.806C139.189 109.331 150.637 69.6666 150.637 69.6666C140.319 85.0904 120.339 92.4374 99.0091 86.6961C98.0663 86.4387 97.1296 86.1581 96.1998 85.8543C95.9184 85.7668 95.637 85.6694 95.3556 85.5721L93.3858 84.8715L92.4478 84.5309C91.7397 84.2475 91.0361 83.9523 90.3373 83.6454L89.7651 83.4021C88.8926 83.0086 88.0293 82.5933 87.1762 82.1565L85.877 81.4753L85.1266 81.0764C84.5748 80.7655 84.0276 80.446 83.4851 80.1178L83.0912 79.8892C82.4202 79.4814 81.7572 79.0596 81.1026 78.6241C80.9009 78.4927 80.7039 78.3468 80.5023 78.2105L79.2125 77.325C78.3041 76.6719 77.4127 75.9937 76.5392 75.2912L75.9295 74.8046C66.5494 67.156 59.1955 56.7048 55.678 44.862C51.9916 32.5764 52.7842 18.7826 59.172 7.59178M86.0553 6.70138C80.3991 15.3864 79.8363 26.0809 83.7665 35.6271C87.9078 45.7621 96.3968 53.7076 106.307 57.5222L107.536 58.0087L108.08 58.1839L109.848 58.6704C137.228 64.1588 144.648 44.0932 146.632 41.1398C140.127 50.8564 129.194 53.187 115.781 49.8103C114.721 49.5426 113.558 49.1437 112.535 48.769C111.223 48.2865 109.936 47.7327 108.68 47.1099C106.296 45.9204 104.032 44.4877 101.922 42.833C89.9198 33.389 82.4627 15.3183 90.295 0.643753" fill="#50CBD1"/>
</g>
<defs>
<filter id="filter0_d_2_7" x="-3.36309" y="0.643753" width="158" height="158" filterUnits="userSpaceOnUse" color-interpolation-filters="sRGB">
<feFlood flood-opacity="0" result="BackgroundImageFix"/>
<feColorMatrix in="SourceAlpha" type="matrix" values="0 0 0 0 0 0 0 0 0 0 0 0 0 0 0 0 0 0 127 0" result="hardAlpha"/>
<feOffset dy="4"/>
<feGaussianBlur stdDeviation="2"/>
<feComposite in2="hardAlpha" operator="out"/>
<feColorMatrix type="matrix" values="0 0 0 0 0 0 0 0 0 0 0 0 0 0 0 0 0 0 0.25 0"/>
<feBlend mode="normal" in2="BackgroundImageFix" result="effect1_dropShadow_2_7"/>
<feBlend mode="normal" in="SourceGraphic" in2="effect1_dropShadow_2_7" result="shape"/>
</filter>
</defs>
</svg>
